# xmcd
#
# Track frame offsets: 
#        150
#        18552
#        37245
#        55647
#
# Disc length: 990 seconds
#
# Revision: 0
# Processed by: cddbd v1.5PL3 Copyright (c) Steve Scherf et al.
# Submitted via: ExactAudioCopy v0.90b4
#
DISCID=2e03dc04
DTITLE=angela - merry-go-round
DYEAR=2003
DGENRE=Rock
TTITLE0=merry-go-round
TTITLE1=butterfly
TTITLE2=merry-go-round(off vocal version)
TTITLE3=butterfly(off vocal version)
EXTD=
EXTT0=
EXTT1=
EXTT2=
EXTT3=
PLAYORDER=
